<svg width="19" height="19" viewBox="0 0 19 19" fill="none" xmlns="http://www.w3.org/2000/svg">
<path d="M0.882324 9.10573C0.882324 4.16765 4.88543 0.164551 9.8235 0.164551C14.7616 0.164551 18.7647 4.16765 18.7647 9.10573C18.7647 14.0438 14.7616 18.0469 9.8235 18.0469C4.88543 18.0469 0.882324 14.0438 0.882324 9.10573Z" fill="#D1FADF"/>
<path fill-rule="evenodd" clip-rule="evenodd" d="M13.6208 5.67103L8.28593 10.8197L6.87025 9.30711C6.60946 9.06123 6.19966 9.04633 5.90162 9.25496C5.61103 9.47104 5.52907 9.85103 5.70789 10.1565L7.38436 12.8836C7.54829 13.1369 7.83142 13.2934 8.15181 13.2934C8.4573 13.2934 8.74789 13.1369 8.91181 12.8836C9.18005 12.5334 14.2989 6.43103 14.2989 6.43103C14.9695 5.74554 14.1573 5.14202 13.6208 5.66358V5.67103Z" fill="#12B76A"/>
</svg>
