<svg width="19" height="19" viewBox="0 0 19 19" fill="none" xmlns="http://www.w3.org/2000/svg">
<path d="M0.84317 9.10561C0.84317 4.16753 4.84627 0.164429 9.78435 0.164429C14.7224 0.164429 18.7255 4.16753 18.7255 9.10561C18.7255 14.0437 14.7224 18.0468 9.78435 18.0468C4.84627 18.0468 0.84317 14.0437 0.84317 9.10561Z" fill="#F2F4F7"/>
<path fill-rule="evenodd" clip-rule="evenodd" d="M13.5817 5.67079L8.24678 10.8194L6.83109 9.30687C6.57031 9.06099 6.1605 9.04609 5.86246 9.25471C5.57188 9.47079 5.48992 9.85079 5.66874 10.1563L7.34521 12.8833C7.50913 13.1367 7.79227 13.2931 8.11266 13.2931C8.41815 13.2931 8.70874 13.1367 8.87266 12.8833C9.1409 12.5331 14.2597 6.43079 14.2597 6.43079C14.9303 5.7453 14.1182 5.14177 13.5817 5.66334V5.67079Z" fill="#667085"/>
</svg>
