<svg width="64" height="64" viewBox="0 0 64 64" fill="none" xmlns="http://www.w3.org/2000/svg">
<g clip-path="url(#clip0_617_22)">
<path d="M31.9628 0.0137929C32.7405 5.69415 33.5171 11.3745 34.3122 17.179C33.8131 16.8388 33.697 16.3871 33.473 16.0216C33.0841 15.3859 32.7394 14.7239 32.3703 14.0768C32.2774 13.9135 32.2263 13.6572 32.0244 13.6446C31.7632 13.6285 31.7249 13.9204 31.6204 14.0963C31.0609 15.0434 30.513 15.9963 29.9605 16.9468C29.8932 16.9296 29.8259 16.9112 29.7585 16.8939C30.4097 11.263 31.0621 5.63093 31.7144 0C31.7968 0.00459762 31.8804 0.00919524 31.9628 0.0137929Z" fill="#CD912A"/>
<path d="M47.2257 63.9092C44.3354 63.9092 41.4439 63.9298 38.5536 63.9023C36.4085 63.8827 34.9785 62.3368 35.1375 60.2816C35.264 58.646 36.8728 57.369 38.8926 57.3518C41.4184 57.33 43.9454 57.3461 46.4724 57.3449C47.4718 57.3438 47.4671 57.3438 46.9866 56.4748C42.1102 47.6531 37.235 38.8303 32.3598 30.0075C32.3017 29.9017 32.2391 29.7994 32.1868 29.6902C31.9454 29.1845 31.7794 29.304 31.553 29.7224C29.4927 33.5304 27.4172 37.3315 25.3476 41.1348C22.542 46.2911 19.7376 51.4473 16.9321 56.6024C16.5293 57.3415 16.5281 57.3438 17.394 57.3449C19.8235 57.3472 22.253 57.3484 24.6813 57.3449C25.5821 57.3438 26.4097 57.5713 27.1526 58.0771C29.0771 59.3908 28.9936 62.1276 26.9924 63.3253C26.3563 63.7057 25.6657 63.9057 24.9181 63.9103C20.0603 63.9413 15.2037 63.9781 10.3459 64C9.59371 64.0034 8.8427 63.9367 8.09052 63.9138C6.71734 63.8724 5.88043 62.9632 6.01392 61.608C6.08472 60.8897 6.27857 60.2035 6.64885 59.561C14.9297 45.2256 23.2037 30.8856 31.4788 16.5456C31.5391 16.441 31.6053 16.3399 31.6622 16.2341C31.8966 15.7962 32.0754 15.7928 32.3319 16.2491C33.5565 18.4306 34.8102 20.5973 36.0464 22.7719C42.1926 33.5867 48.3377 44.4026 54.4805 55.2197C55.4068 56.8518 56.3191 58.492 57.2373 60.1288C57.5344 60.6586 57.7422 61.223 57.7968 61.8276C57.914 63.1195 57.2059 63.9046 55.8966 63.9103C53.0063 63.9218 50.1148 63.9138 47.2245 63.9138C47.2257 63.9126 47.2257 63.9115 47.2257 63.9092Z" fill="#CD912A"/>
</g>
<defs>
<clipPath id="clip0_617_22">
<rect width="51.8095" height="64" fill="white" transform="translate(6)"/>
</clipPath>
</defs>
</svg>
