<svg xmlns="http://www.w3.org/2000/svg" viewBox="0 0 204.026 62.794"><g data-name="Santis sign 2" stroke="currentColor" fill="currentColor"><g data-name="Group 14139"><g data-name="Group 14138"><path data-name="Path 122713" d="M46.571.008c.6 4.422 1.2 8.847 1.81 13.366a2.252 2.252 0 0 1-.646-.9c-.3-.495-.565-1.011-.85-1.514-.073-.126-.11-.325-.266-.336-.2-.013-.231.215-.312.352-.43.737-.855 1.479-1.28 2.219l-.156-.04L46.38 0c.062 0 .126 0 .191.008"/><path data-name="Path 122714" d="M58.339 49.759c-2.23 0-4.457.016-6.687-.005a2.53 2.53 0 0 1-2.633-2.819 2.736 2.736 0 0 1 2.894-2.281c1.947-.016 3.895 0 5.845-.005.769 0 .767 0 .4-.678q-5.641-10.3-11.278-20.609a2.73 2.73 0 0 1-.132-.247c-.186-.393-.315-.3-.49.027q-2.385 4.446-4.785 8.887-3.244 6.02-6.488 12.045c-.309.576-.312.578.355.578h5.619a3.238 3.238 0 0 1 1.9.57 2.406 2.406 0 0 1-.124 4.086 3.068 3.068 0 0 1-1.6.455c-3.744.024-7.491.054-11.235.07-.578 0-1.159-.048-1.74-.067a1.536 1.536 0 0 1-1.6-1.794 3.935 3.935 0 0 1 .49-1.6q9.578-16.744 19.146-33.494c.046-.081.1-.161.143-.242.18-.342.317-.344.516.011.944 1.7 1.912 3.386 2.865 5.078q7.109 12.633 14.213 25.266c.715 1.27 1.418 2.547 2.125 3.822a3.321 3.321 0 0 1 .43 1.323 1.35 1.35 0 0 1-1.466 1.622c-2.23.008-4.457 0-6.687 0v-.005Z"/></g><path data-name="Path 122715" d="M1.01 48.443c-.853-.374-1.011-.64-1.011-1.813 0-2.932.212-6.127.266-6.983.054-.8.212-1.385.64-1.385.479 0 .533.479.533.906a11.243 11.243 0 0 0 .479 2.717c1.173 3.943 4.317 5.382 7.62 5.382 4.8 0 7.141-3.252 7.141-6.076 0-2.612-.8-5.062-5.224-8.527L9.01 30.743c-5.861-4.583-7.887-8.314-7.887-12.631 0-5.861 4.9-10.073 12.311-10.073a25.747 25.747 0 0 1 7.088.906c.479.108.745.266.745.64 0 .694-.212 2.238-.212 6.4 0 1.173-.159 1.6-.586 1.6-.374 0-.533-.32-.533-.96a6.456 6.456 0 0 0-1.385-3.518 6.751 6.751 0 0 0-5.807-2.612c-3.943 0-6.343 2.292-6.343 5.49 0 2.45 1.227 4.317 5.649 7.674l1.493 1.119c6.448 4.85 8.739 8.527 8.739 13.589a10.74 10.74 0 0 1-5.008 9.272 15.4 15.4 0 0 1-8.473 2.184 18.371 18.371 0 0 1-7.791-1.38"/><path data-name="Path 122716" d="M79.995 41.943c.108 4.156.8 5.541 1.864 5.915a8.456 8.456 0 0 0 2.77.374c.586 0 .906.108.906.425 0 .428-.479.533-1.227.533-3.464 0-5.595-.159-6.609-.159-.479 0-2.986.159-5.756.159-.694 0-1.173-.054-1.173-.533 0-.32.32-.425.853-.425a9.511 9.511 0 0 0 2.4-.266c1.385-.428 1.6-1.972 1.652-6.609l.479-31.39c0-1.065.161-1.813.694-1.813.586 0 1.065.691 1.972 1.652.64.694 8.739 9.221 16.521 16.949 3.623 3.623 10.818 11.3 11.725 12.15h.266l-.533-23.929c-.054-3.249-.533-4.263-1.813-4.8a8.686 8.686 0 0 0-2.824-.32c-.64 0-.853-.159-.853-.479 0-.425.586-.479 1.385-.479 2.771 0 5.329.159 6.448.159.586 0 2.612-.159 5.224-.159.694 0 1.227.054 1.227.479 0 .32-.32.479-.96.479a5.768 5.768 0 0 0-1.6.161c-1.493.425-1.918 1.547-1.972 4.53l-.589 33.631c0 1.173-.212 1.652-.691 1.652-.586 0-1.227-.586-1.813-1.173-3.357-3.2-10.178-10.178-15.722-15.668-5.81-5.756-11.725-12.258-12.682-13.269h-.159Z"/><path data-name="Path 122717" d="m134.954 12.524-7.94.212c-3.091.108-4.371.374-5.17 1.544a6.359 6.359 0 0 0-.906 1.864c-.108.428-.266.64-.586.64-.374 0-.479-.266-.479-.853 0-.853 1.011-5.7 1.119-6.127.161-.694.32-1.011.64-1.011a12.4 12.4 0 0 0 2.292.64c1.547.159 3.569.266 5.328.266h21.1a25.384 25.384 0 0 0 3.677-.266 12.415 12.415 0 0 1 1.439-.266c.374 0 .428.32.428 1.119 0 1.119-.161 4.8-.161 6.181-.054.533-.159.853-.479.853-.428 0-.533-.266-.586-1.065l-.054-.586c-.1-1.385-1.547-2.878-6.289-2.986l-6.714-.161v21.849c0 4.9 0 9.113.266 11.4.159 1.493.479 2.666 2.079 2.878a22.228 22.228 0 0 0 2.717.212c.586 0 .853.161.853.428 0 .374-.428.533-1.014.533-3.518 0-6.875-.159-8.365-.159-1.227 0-4.583.159-6.714.159-.694 0-1.065-.159-1.065-.533 0-.266.213-.428.853-.428a8.843 8.843 0 0 0 1.92-.212c1.065-.212 1.385-1.385 1.544-2.932.266-2.238.266-6.448.266-11.351V12.524Z"/><path data-name="Path 122718" d="M164.862 24.997c0-8.1 0-9.592-.107-11.3-.1-1.813-.64-2.717-1.813-2.986a7.626 7.626 0 0 0-1.918-.213c-.533 0-.853-.108-.853-.533 0-.32.425-.428 1.278-.428 2.025 0 5.382.159 6.929.159 1.331 0 4.476-.159 6.5-.159.694 0 1.119.108 1.119.428 0 .425-.32.533-.853.533a8.9 8.9 0 0 0-1.6.161c-1.439.266-1.867 1.173-1.972 3.037-.108 1.705-.108 3.2-.108 11.3v9.379c0 5.17 0 9.379.212 11.671.159 1.439.533 2.4 2.133 2.612a22.226 22.226 0 0 0 2.717.212c.586 0 .853.161.853.428 0 .374-.425.533-1.014.533-3.515 0-6.875-.159-8.314-.159-1.227 0-4.583.159-6.714.159-.694 0-1.065-.159-1.065-.533 0-.266.212-.428.853-.428a8.8 8.8 0 0 0 1.918-.212c1.065-.213 1.385-1.119 1.547-2.666.266-2.238.266-6.448.266-11.617v-9.378Z"/><path data-name="Path 122719" d="M182.674 48.443c-.853-.374-1.014-.64-1.014-1.813 0-2.932.213-6.127.266-6.983.054-.8.213-1.385.64-1.385.479 0 .532.479.532.906a11.127 11.127 0 0 0 .482 2.717c1.173 3.943 4.317 5.382 7.62 5.382 4.8 0 7.142-3.252 7.142-6.076 0-2.612-.8-5.062-5.224-8.527l-2.45-1.918c-5.861-4.583-7.887-8.314-7.887-12.631 0-5.861 4.9-10.073 12.311-10.073a25.745 25.745 0 0 1 7.088.906c.479.108.748.266.748.64 0 .694-.212 2.238-.212 6.4 0 1.173-.161 1.6-.586 1.6-.374 0-.533-.32-.533-.96a6.456 6.456 0 0 0-1.385-3.518 6.754 6.754 0 0 0-5.81-2.612c-3.943 0-6.342 2.292-6.342 5.49 0 2.45 1.227 4.317 5.648 7.674l1.493 1.119c6.448 4.85 8.739 8.527 8.739 13.589a10.741 10.741 0 0 1-5.009 9.272 15.4 15.4 0 0 1-8.473 2.184 18.371 18.371 0 0 1-7.784-1.377"/></g><g data-name="Group 14140"><path data-name="Path 122720" d="M138.497 60.117c0 1.63-1.237 2.569-3.642 2.569h-4.538v-9.511h4.266c2.187 0 3.411.923 3.411 2.459a2.252 2.252 0 0 1-1.278 2.12 2.3 2.3 0 0 1 1.781 2.364m-6.819-5.842v3.045h2.787c1.385 0 2.173-.516 2.173-1.522s-.788-1.523-2.173-1.523Zm5.447 5.735c0-1.1-.815-1.59-2.324-1.59h-3.126v3.164h3.126c1.509 0 2.324-.476 2.324-1.576"/><path data-name="Path 122721" d="M144.03 60.174v2.512h-1.318v-2.555l-3.166-5.162h1.4l2.459 3.954 2.448-3.954h1.358Z"/><path data-name="Path 122722" d="M160.962 56.492c0 2.066-1.5 3.317-3.968 3.317h-2.351v2.881h-1.358v-9.512h3.709c2.472 0 3.968 1.248 3.968 3.314m-1.361 0c0-1.358-.909-2.133-2.649-2.133h-2.311v4.266h2.311c1.74 0 2.649-.775 2.649-2.133"/><path data-name="Path 122723" d="M167.77 60.852h-4.145l-.815 1.835h-1.291l3.532-7.717h1.3l3.545 7.717h-1.327Zm-.463-1.046-1.6-3.642-1.617 3.642Z"/><path data-name="Path 122724" d="M177.472 61.586v1.1h-5.788v-7.717h5.64v1.087h-4.323v2.173h3.846v1.073h-3.846v2.284Z"/><path data-name="Path 122725" d="M179.907 54.969h1.318v6.617h4.142v1.1h-5.46Z"/><path data-name="Path 122726" d="M186.376 58.826a4.205 4.205 0 1 1 4.2 3.968 3.979 3.979 0 0 1-4.2-3.968m7.063 0a2.868 2.868 0 1 0-2.867 2.827 2.761 2.761 0 0 0 2.867-2.827"/><path data-name="Path 122727" d="M204.026 54.969v7.717h-1.087l-4.457-5.45v5.45h-1.318v-7.717h1.087l4.457 5.476v-5.476Z"/></g></g></svg>