<svg width="66" height="67" viewBox="0 0 66 67" fill="none" xmlns="http://www.w3.org/2000/svg">
<path d="M5 33.5C5 18.036 17.536 5.5 33 5.5C48.464 5.5 61 18.036 61 33.5C61 48.964 48.464 61.5 33 61.5C17.536 61.5 5 48.964 5 33.5Z" fill="#D1FADF"/>
<path d="M44.6666 32.4267V33.5C44.6652 36.0158 43.8505 38.4638 42.3441 40.4788C40.8378 42.4938 38.7204 43.9679 36.3078 44.6812C33.8953 45.3945 31.3167 45.3089 28.9568 44.437C26.5969 43.5652 24.582 41.9538 23.2127 39.8433C21.8434 37.7327 21.193 35.2361 21.3585 32.7257C21.5241 30.2153 22.4967 27.8257 24.1312 25.9133C25.7658 24.0008 27.9748 22.668 30.4288 22.1135C32.8828 21.5591 35.4502 21.8127 37.7483 22.8367M44.6666 24.1667L32.9999 35.845L29.4999 32.345" stroke="#039855" stroke-width="2.33333" stroke-linecap="round" stroke-linejoin="round"/>
<path d="M33 56.5C20.2975 56.5 10 46.2025 10 33.5H0C0 51.7254 14.7746 66.5 33 66.5V56.5ZM56 33.5C56 46.2025 45.7025 56.5 33 56.5V66.5C51.2254 66.5 66 51.7254 66 33.5H56ZM33 10.5C45.7025 10.5 56 20.7975 56 33.5H66C66 15.2746 51.2254 0.5 33 0.5V10.5ZM33 0.5C14.7746 0.5 0 15.2746 0 33.5H10C10 20.7975 20.2975 10.5 33 10.5V0.5Z" fill="#ECFDF3"/>
</svg>
